# xmcd CD database file
#
# Track frame offsets:
#	150
#	19027
#	35297
#
# Disc length: 721 seconds
#
# Revision: 0
# Processed by: cddbd v1.5PL3 Copyright (c) Steve Scherf et al.
# Submitted via: CDex 1.51
#
DISCID=1702cf03
DTITLE=林原めぐみ - OUR GOOD DAY･･･ 僕らのGOOD DAY
DYEAR=1993
DGENRE=Anime
TTITLE0=OUR GOOD DAY･･･ 僕らのGOOD DAY
TTITLE1=KEEP ON DREAMING <MEGUMI VERSION>
TTITLE2=OUR GOOD DAY･･･ 僕らのGOOD DAY (カラオケ)
EXTD=YEAR: 1993
EXTT0=
EXTT1=
EXTT2=
PLAYORDER=
